<svg width="631" height="182" viewBox="0 0 631 182" fill="none" xmlns="http://www.w3.org/2000/svg">
<path d="M544.874 114.788L580.661 33.8281H630.062L575.195 145.316C564.985 145.316 561.375 148.307 559.519 154.805L551.784 181.31H505.271L512.902 154.805C514.759 148.307 511.458 145.316 501.558 145.316L509.293 33.8281H556.115L544.874 114.788ZM221.433 30.8369C264.233 30.8369 277.744 51.3611 270.628 76.1133L257.427 121.802C255.158 130.052 254.333 135.519 254.745 147.895H209.264C208.954 142.222 208.954 136.344 209.676 132.631C201.322 143.46 192.143 150.886 176.363 150.886C152.849 150.886 141.814 133.455 148.518 108.497L148.62 107.981C153.88 88.7985 165.225 79.929 193.071 76.835L224.733 73.6377L226.074 68.9971C228.137 62.0872 225.765 57.6525 219.268 57.6523C213.492 57.6523 210.191 61.4678 208.851 68.2744L208.335 69.9248H161.203L161.306 69.3066C166.669 45.2765 186.883 30.837 221.433 30.8369ZM446.479 30.8369C486.289 30.8369 507.535 54.7641 497.634 89.417L494.54 99.9375H422.655L421.624 103.649C418.221 115.303 422.759 121.492 430.803 121.492C438.538 121.492 442.458 116.335 444.521 107.878H491.962L491.343 110.044C485.98 131.186 468.757 150.886 431.01 150.886C392.438 150.886 368.201 127.061 378.205 88.4893L381.093 78.4854C388.622 49.6078 411.001 30.837 446.479 30.8369ZM76.5254 53.7324H106.95L122.42 0H171.925L129.434 147.895H79.9287L96.5332 90.2422H66.0059L49.5039 147.895H0L42.4912 0H91.9961L76.5254 53.7324ZM379.438 68.3779L320.755 116.748H367.682L358.709 147.895H258.153L267.95 114.066L327.562 64.9746H281.977L290.949 33.8281H389.442L379.438 68.3779ZM210.191 93.8525C201.838 96.0183 198.641 99.0089 196.784 106.125L195.855 109.322C194.205 115.923 196.681 121.286 203.487 121.286C209.263 121.389 212.254 117.367 213.698 112.313L219.576 91.583L210.191 93.8525ZM445.139 59.5088C437.094 59.5089 432.763 64.9748 429.875 75.2881L429.463 76.835H453.39L454.009 74.875C456.69 65.4901 453.596 59.5088 445.139 59.5088Z" fill="#F7F7FF"/>
</svg>
